<?xml version="1.0" encoding="UTF-8"?>
<svg xmlns="http://www.w3.org/2000/svg" viewBox="0 0 400 400">
  <defs>
    <style>
      .cls-1, .cls-2, .cls-3 {
        fill: none;
      }

      .cls-1, .cls-2, .cls-3, .cls-4, .cls-5, .cls-6, .cls-7 {
        stroke: #000;
      }

      .cls-1, .cls-2, .cls-3, .cls-5, .cls-6, .cls-7 {
        stroke-width: 4px;
      }

      .cls-1, .cls-4, .cls-8, .cls-5 {
        stroke-miterlimit: 10;
      }

      .cls-2, .cls-3, .cls-6, .cls-7 {
        stroke-linejoin: round;
      }

      .cls-3, .cls-8 {
        stroke-linecap: round;
      }

      .cls-4 {
        fill: #1fe3c3;
        stroke-width: 2.5px;
      }

      .cls-8 {
        fill: #fff;
        stroke: #fff;
        stroke-width: .5px;
      }

      .cls-5, .cls-6 {
        fill: #fe3719;
      }

      .cls-7 {
        fill: #1de2c8;
      }
    </style>
  </defs>
  <g id="_图层_2" data-name="图层 2">
    <path class="cls-2" d="m213.87,135.59s-15.89-5.44-37.89,14.56l24.92,2.3"/>
    <path class="cls-7" d="m101.26,116.91s16,34,28,34,24-22,24-22c0,0-7,32,4,42s24,12,40-11,44.74-63.91,101.74-59.91c0,0,14.52,23.55,4,52-9.87,26.7-40.74,47.91-80.74,59.91s-111-16-121-95Z"/>
    <line class="cls-1" x1="266.52" y1="133.16" x2="280.3" y2="146.95"/>
    <line class="cls-1" x1="266.52" y1="146.95" x2="280.3" y2="133.16"/>
    <path class="cls-3" d="m233.09,120.61s-10,30,20,44"/>
    <path class="cls-4" d="m114.98,88.95s-5.94,19.1,4,18c9-1,3-16-4-18Z"/>
    <path class="cls-4" d="m137.98,105.95s-3.84,13.28,3,11c3-1,2-7-3-11Z"/>
  </g>
  <g id="_图层_3" data-name="图层 3">
    <path class="cls-5" d="m153.77,284.59s-8.94,14.48-3.78,21.36c3,4,4,5,15,5s77.55.53,84.28.26c6.72-.26,9.72-7.26,8.72-11.26s-6.45-15.38-9.23-19.19"/>
    <path class="cls-6" d="m88.98,169.36s-8,0-11,9.97,24,112.63,118,113.63c94,1,137-107.65,124-120.61-1-1-4.98-6.98-11.49-2.99s-46.51,29.9-103.51,29.9-116-29.9-116-29.9Z"/>
  </g>
  <g id="_图层_4" data-name="图层 4">
    <path class="cls-8" d="m88.48,171.45s-9.7-1.42-8.72,10.03c2.72,31.97,28.72,64.97,28.72,64.97,0,0-20-40-20-75Z"/>
  </g>
</svg>